<svg width="270" height="180" viewBox="0 0 270 180" fill="none" xmlns="http://www.w3.org/2000/svg">
<rect width="270" height="180" rx="20" fill="#016FD0"/>
<rect x="5" y="5" width="260" height="170" rx="15" stroke="black" stroke-opacity="0.2" stroke-width="10"/>
<path fill-rule="evenodd" clip-rule="evenodd" d="M267.4 133.5V153.06H242.56L233.38 142.32L223.84 153.06H153.28V95.88H130L159.1 30H187.42L194.26 44.94V30H229.42L235.3 45.66L241.06 30H267.4V39.2999H247.06L237.82 63.6601L235.36 70.2599L223.54 39.2999H203.2V87.2998L182.08 39.2999H165.7L144.46 87.2998H158.38L162.1 78.06H185.38L189.1 87.2998H203.2H215.44V56.04L215.38 49.7399L217.78 56.04L229.48 87.2998H241.12L252.88 56.04L255.16 49.8V87.2998H267.4V106.08L253.84 119.7L267.4 133.5ZM163.12 143.76V95.9397H203.2V106.32H175.36V114.72H202.66V125.04H175.36V133.38H203.2V143.76H163.12ZM263.68 143.76H247.78L233.26 128.16L218.68 143.76H203.2L225.58 119.94L203.2 95.9397H219.16L233.56 111.48L248.02 95.9397H263.68L241.24 119.76L263.68 143.76Z" fill="white"/>
<path d="M173.74 49.5599L171.34 55.5601L166.36 67.6798H181.12L176.14 55.5601L173.74 49.5599Z" fill="white"/>
</svg>
