<svg width="270" height="180" viewBox="0 0 270 180" fill="none" xmlns="http://www.w3.org/2000/svg">
<rect width="270" height="180" rx="20" fill="#231F20"/>
<rect x="5" y="5" width="260" height="170" rx="15" stroke="white" stroke-opacity="0.2" stroke-width="10"/>
<path d="M270 120C270 120 209.955 161.424 100 180H270V120Z" fill="#F48120"/>
<path d="M30.5339 69.5041H20V106.406H30.5339C36.1027 106.406 40.1284 105.064 43.6844 102.179C47.9114 98.6903 50.3939 93.4569 50.3939 88.0222C50.3268 77.0858 42.2083 69.5041 30.5339 69.5041ZM38.9878 97.2813C36.7066 99.2941 33.8215 100.233 29.1249 100.233H27.1791V75.811H29.1249C33.7544 75.811 36.5724 76.6161 38.9878 78.7632C41.4703 80.9773 42.9464 84.3991 42.9464 87.9551C42.9464 91.5111 41.4703 95.0672 38.9878 97.2813Z" fill="white"/>
<path d="M60.8603 69.5041H53.6812V106.406H60.8603V69.5041Z" fill="white"/>
<path d="M78.4393 83.661C74.1452 82.0507 72.8704 80.9772 72.8704 79.0315C72.8704 76.6832 75.1516 74.9387 78.238 74.9387C80.385 74.9387 82.1966 75.8109 84.0081 77.958L87.7654 73.0601C84.6791 70.3763 80.9889 68.9673 76.8961 68.9673C70.3879 68.9673 65.3558 73.5297 65.3558 79.5682C65.3558 84.6674 67.7041 87.2841 74.4136 89.6995C77.2316 90.706 78.6406 91.3769 79.3786 91.7795C80.7876 92.7188 81.5256 94.0607 81.5256 95.6039C81.5256 98.6231 79.1773 100.837 75.9568 100.837C72.5349 100.837 69.7841 99.0928 68.1067 95.9393L63.4772 100.435C66.7648 105.333 70.7905 107.48 76.2252 107.48C83.6727 107.48 88.9731 102.515 88.9731 95.3355C89.1073 89.3641 86.6248 86.6803 78.4393 83.661Z" fill="white"/>
<path d="M91.3221 88.0222C91.3221 98.8916 99.8432 107.278 110.78 107.278C113.866 107.278 116.55 106.675 119.77 105.131V96.6775C116.885 99.5625 114.336 100.703 111.115 100.703C103.869 100.703 98.7026 95.4697 98.7026 87.9551C98.7026 80.8431 104.003 75.2742 110.78 75.2742C114.201 75.2742 116.818 76.482 119.77 79.4341V70.9802C116.617 69.3699 114 68.699 110.914 68.699C100.112 68.699 91.3221 77.2871 91.3221 88.0222Z" fill="white"/>
<path d="M176.934 94.3291L167.072 69.5041H159.221L174.854 107.345H178.746L194.647 69.5041H186.864L176.934 94.3291Z" fill="white"/>
<path d="M197.935 106.406H218.332V100.166H205.114V90.2363H217.862V83.9965H205.114V75.811H218.332V69.5041H197.935V106.406Z" fill="white"/>
<path d="M246.847 80.4404C246.847 73.5296 242.083 69.571 233.763 69.571H223.095V106.473H230.274V91.6452H231.214L241.144 106.473H250L238.393 90.9072C243.828 89.7665 246.847 86.0763 246.847 80.4404ZM232.354 86.546H230.274V75.3412H232.489C236.984 75.3412 239.399 77.2198 239.399 80.843C239.399 84.5332 236.984 86.546 232.354 86.546Z" fill="white"/>
<path d="M141.843 107.748C152.7 107.748 161.501 98.9464 161.501 88.0892C161.501 77.232 152.7 68.4305 141.843 68.4305C130.985 68.4305 122.184 77.232 122.184 88.0892C122.184 98.9464 130.985 107.748 141.843 107.748Z" fill="#F48120"/>
</svg>
