<svg width="270" height="180" viewBox="0 0 270 180" fill="none" xmlns="http://www.w3.org/2000/svg">
<rect width="270" height="180" rx="20" fill="#252525"/>
<rect x="5" y="5" width="260" height="170" rx="15" stroke="white" stroke-opacity="0.2" stroke-width="10"/>
<path d="M112.017 48.1708H157.983V130.763H112.017V48.1708Z" fill="#FF5F00"/>
<path d="M114.936 89.4668C114.936 72.6856 122.815 57.8015 134.927 48.1706C126.026 41.1663 114.79 36.9346 102.532 36.9346C73.4936 36.9346 50 60.4281 50 89.4668C50 118.505 73.4936 141.999 102.532 141.999C114.79 141.999 126.026 137.767 134.927 130.763C122.815 121.278 114.936 106.248 114.936 89.4668Z" fill="#EB001B"/>
<path d="M220 89.4668C220 118.505 196.506 141.999 167.468 141.999C155.21 141.999 143.974 137.767 135.073 130.763C147.33 121.132 155.064 106.248 155.064 89.4668C155.064 72.6856 147.184 57.8015 135.073 48.1706C143.974 41.1663 155.21 36.9346 167.468 36.9346C196.506 36.9346 220 60.5741 220 89.4668Z" fill="#F79E1B"/>
</svg>
