<svg width="270" height="180" viewBox="0 0 270 180" fill="none" xmlns="http://www.w3.org/2000/svg">
<rect width="270" height="180" rx="20" fill="#1434CB"/>
<rect x="5" y="5" width="260" height="170" rx="15" stroke="black" stroke-opacity="0.2" stroke-width="10"/>
<path d="M166.781 54.8601C151.87 54.8601 138.545 62.5887 138.545 76.8678C138.545 93.2432 162.177 94.3742 162.177 102.601C162.177 106.065 158.208 109.165 151.428 109.165C141.806 109.165 134.614 104.833 134.614 104.833L131.537 119.242C131.537 119.242 139.822 122.902 150.821 122.902C167.123 122.902 179.951 114.794 179.951 100.27C179.951 82.9668 156.22 81.8694 156.22 74.2337C156.22 71.5203 159.479 68.5472 166.239 68.5472C173.867 68.5472 180.09 71.6982 180.09 71.6982L183.102 57.7813C183.102 57.7813 176.33 54.8601 166.781 54.8601ZM30.3611 55.9104L30 58.0111C30 58.0111 36.273 59.1592 41.9229 61.4493C49.1975 64.0754 49.7157 65.6041 50.9409 70.3525L64.2916 121.819H82.1882L109.759 55.9104H91.9037L74.1876 100.722L66.9584 62.7376C66.2954 58.3903 62.9372 55.9104 58.8266 55.9104H30.3611ZM116.939 55.9104L102.932 121.819H119.959L133.917 55.9104H116.939ZM211.904 55.9104C207.798 55.9104 205.623 58.1086 204.026 61.9498L179.081 121.819H196.937L200.391 111.84H222.144L224.245 121.819H240L226.255 55.9104H211.904ZM214.226 73.7168L219.519 98.4487H205.339L214.226 73.7168Z" fill="white"/>
</svg>
